<mxfile host="app.diagrams.net" agent="Mozilla/5.0 (Windows NT 10.0; Win64; x64) AppleWebKit/537.36 (KHTML, like Gecko) Chrome/133.0.0.0 Safari/537.36 Edg/133.0.0.0" version="26.0.14">
  <diagram name="Page-1" id="2019046061296">
    <mxGraphModel dx="2876" dy="1141" grid="1" gridSize="10" guides="1" tooltips="1" connect="1" arrows="1" fold="1" page="1" pageScale="1" pageWidth="850" pageHeight="1100" math="0" shadow="0">
      <root>
        <mxCell id="0" />
        <mxCell id="1" parent="0" />
        <mxCell id="2019046060624" value="Начало" style="whiteSpace=wrap;rounded=0;dashed=0;strokeWidth=2;shape=mxgraph.flowchart.start_1;" parent="1" vertex="1">
          <mxGeometry x="40" y="50" width="120" height="80" as="geometry" />
        </mxCell>
        <mxCell id="2019046060816" value="#include &lt;iostream&gt; #include &lt;cmath&gt; using namespace std;   template&lt;typename... Args&gt;" style="whiteSpace=wrap;rounded=0;dashed=0;strokeWidth=2;shape=mxgraph.flowchart.annotation_1;align=left;pointerEvents=1;" parent="1" vertex="1">
          <mxGeometry x="309" y="50" width="182" height="120" as="geometry" />
        </mxCell>
        <mxCell id="2019046060576" style="edgeStyle=orthogonalEdgeStyle;orthogonalLoop=1;dashed=1;dashPattern=8 8;rounded=0;jettySize=auto;entryX=1;entryY=0.5;entryDx=0;entryDy=0;exitX=0;exitY=0.5;exitDx=0;exitDy=0;targetPerimeterSpacing=0;sourcePerimeterSpacing=0;" parent="1" source="2019046060816" target="2019046060624" edge="1">
          <mxGeometry relative="1" as="geometry" />
        </mxCell>
        <mxCell id="2019046060432" value="int main()" style="whiteSpace=wrap;rounded=0;dashed=0;inherit=default;shape=process;backgroundOutline=1;" parent="1" vertex="1">
          <mxGeometry x="40" y="150" width="120" height="80" as="geometry" />
        </mxCell>
        <mxCell id="2019046060144" style="edgeStyle=orthogonalEdgeStyle;orthogonalLoop=1;rounded=0;jettySize=auto;entryX=0.5;entryY=0;entryDx=0;entryDy=0;exitX=0.5;exitY=1;exitDx=0;exitDy=0;targetPerimeterSpacing=0;sourcePerimeterSpacing=0;" parent="1" source="2019046060624" target="2019046060432" edge="1">
          <mxGeometry relative="1" as="geometry" />
        </mxCell>
        <mxCell id="2019046059856" value="cout &lt;&lt; &quot;kvadr(4, 5, 16) = &quot; &lt;&lt; kvadr(4, 5, 16) &lt;&lt; &quot;\n&quot;;" style="whiteSpace=wrap;rounded=1;dashed=0;shape=parallelogram;strokeWidth=2;perimter=parallelogramPerimeter;arcSize=12;size=0.23;" parent="1" vertex="1">
          <mxGeometry x="-116" y="270" width="432" height="80" as="geometry" />
        </mxCell>
        <mxCell id="2019046059328" value="cout &lt;&lt; &quot;kvadr(1, 2, 3, 4, 5, 9, 10) = &quot; &lt;&lt; kvadr(1, 2, 3, 4, 5, 9, 10) &lt;&lt; &quot;\n&quot;;" style="whiteSpace=wrap;rounded=1;dashed=0;shape=parallelogram;strokeWidth=2;perimter=parallelogramPerimeter;arcSize=12;size=0.23;" parent="1" vertex="1">
          <mxGeometry x="-200" y="390" width="600" height="80" as="geometry" />
        </mxCell>
        <mxCell id="2019046059712" style="edgeStyle=orthogonalEdgeStyle;orthogonalLoop=1;rounded=0;jettySize=auto;entryX=0.5;entryY=0;entryDx=0;entryDy=0;exitX=0.5;exitY=1;exitDx=0;exitDy=0;targetPerimeterSpacing=0;sourcePerimeterSpacing=0;" parent="1" source="2019046059856" target="2019046059328" edge="1">
          <mxGeometry relative="1" as="geometry" />
        </mxCell>
        <mxCell id="2019046059760" value="cout &lt;&lt; &quot;kvadr(1, 2, 3, 4, 5, 6, 7, 8, 9, 10, 16) = &quot; &lt;&lt; kvadr(1, 2, 3, 4, 5, 6, 7, 8, 9, 10, 16) &lt;&lt; &quot;\n&quot;;" style="whiteSpace=wrap;rounded=1;dashed=0;shape=parallelogram;strokeWidth=2;perimter=parallelogramPerimeter;arcSize=12;size=0.23;" parent="1" vertex="1">
          <mxGeometry x="-291" y="510" width="782" height="80" as="geometry" />
        </mxCell>
        <mxCell id="2019046059424" style="edgeStyle=orthogonalEdgeStyle;orthogonalLoop=1;rounded=0;jettySize=auto;entryX=0.5;entryY=0;entryDx=0;entryDy=0;exitX=0.5;exitY=1;exitDx=0;exitDy=0;targetPerimeterSpacing=0;sourcePerimeterSpacing=0;" parent="1" source="2019046059328" target="2019046059760" edge="1">
          <mxGeometry relative="1" as="geometry" />
        </mxCell>
        <mxCell id="2019046059472" value="return 0;" style="whiteSpace=wrap;rounded=0;dashed=0;strokeWidth=2;shape=mxgraph.flowchart.terminator;" parent="1" vertex="1">
          <mxGeometry x="40" y="630" width="120" height="80" as="geometry" />
        </mxCell>
        <mxCell id="2019046059136" style="edgeStyle=orthogonalEdgeStyle;orthogonalLoop=1;rounded=0;jettySize=auto;entryX=0.5;entryY=0;entryDx=0;entryDy=0;exitX=0.5;exitY=1;exitDx=0;exitDy=0;targetPerimeterSpacing=0;sourcePerimeterSpacing=0;" parent="1" source="2019046059760" target="2019046059472" edge="1">
          <mxGeometry relative="1" as="geometry" />
        </mxCell>
        <mxCell id="2019046060048" style="edgeStyle=orthogonalEdgeStyle;orthogonalLoop=1;rounded=0;jettySize=auto;entryX=0.5;entryY=0;entryDx=0;entryDy=0;exitX=0.5;exitY=1;exitDx=0;exitDy=0;targetPerimeterSpacing=0;sourcePerimeterSpacing=0;" parent="1" source="2019046060432" target="2019046059856" edge="1">
          <mxGeometry relative="1" as="geometry" />
        </mxCell>
        <mxCell id="2019046058320" value="bool isPerfectSquare(int x)" style="whiteSpace=wrap;rounded=0;dashed=0;inherit=default;shape=process;backgroundOutline=1;" parent="1" vertex="1">
          <mxGeometry x="705.5" y="50" width="189" height="80" as="geometry" />
        </mxCell>
        <mxCell id="eQgMcs1U97YG8HQ-sQCH-2019046060817" style="edgeStyle=orthogonalEdgeStyle;rounded=0;orthogonalLoop=1;jettySize=auto;html=1;entryX=0.5;entryY=0;entryDx=0;entryDy=0;" edge="1" parent="1" source="2019046058752" target="2019046058224">
          <mxGeometry relative="1" as="geometry">
            <Array as="points">
              <mxPoint x="930" y="210" />
              <mxPoint x="930" y="430" />
              <mxPoint x="800" y="430" />
            </Array>
          </mxGeometry>
        </mxCell>
        <mxCell id="2019046058752" value="if (x &lt; 0)" style="whiteSpace=wrap;rounded=0;dashed=0;strokeWidth=2;shape=mxgraph.flowchart.decision;" parent="1" vertex="1">
          <mxGeometry x="740" y="170" width="120" height="80" as="geometry" />
        </mxCell>
        <mxCell id="eQgMcs1U97YG8HQ-sQCH-2019046060816" style="edgeStyle=orthogonalEdgeStyle;rounded=0;orthogonalLoop=1;jettySize=auto;html=1;" edge="1" parent="1" source="2019046058800" target="2019046058224">
          <mxGeometry relative="1" as="geometry">
            <Array as="points">
              <mxPoint x="650" y="430" />
              <mxPoint x="800" y="430" />
            </Array>
          </mxGeometry>
        </mxCell>
        <mxCell id="2019046058800" value="if (x &lt; 0) return false;" style="whiteSpace=wrap;rounded=1;dashed=0;absoluteArcSize=1;arcSize=14;strokeWidth=2;" parent="1" vertex="1">
          <mxGeometry x="566" y="290" width="168" height="80" as="geometry" />
        </mxCell>
        <mxCell id="2019046058416" value="1" style="edgeStyle=orthogonalEdgeStyle;orthogonalLoop=1;rounded=0;jettySize=auto;entryX=0.5;entryY=0;entryDx=0;entryDy=0;exitX=0;exitY=0.5;exitDx=0;exitDy=0;targetPerimeterSpacing=30;sourcePerimeterSpacing=30;" parent="1" source="2019046058752" target="2019046058800" edge="1">
          <mxGeometry x="-0.0588" y="-10" relative="1" as="geometry">
            <mxPoint as="offset" />
          </mxGeometry>
        </mxCell>
        <mxCell id="2019046058224" value="int r = static_cast&lt;int&gt;(sqrt(x));" style="whiteSpace=wrap;rounded=1;dashed=0;absoluteArcSize=1;arcSize=14;strokeWidth=2;" parent="1" vertex="1">
          <mxGeometry x="681" y="480" width="238" height="80" as="geometry" />
        </mxCell>
        <mxCell id="2019046058176" value="return r * r == x;" style="whiteSpace=wrap;rounded=0;dashed=0;strokeWidth=2;shape=mxgraph.flowchart.terminator;" parent="1" vertex="1">
          <mxGeometry x="737" y="600" width="126" height="80" as="geometry" />
        </mxCell>
        <mxCell id="2019046057504" style="edgeStyle=orthogonalEdgeStyle;orthogonalLoop=1;rounded=0;jettySize=auto;entryX=0.5;entryY=0;entryDx=0;entryDy=0;exitX=0.5;exitY=1;exitDx=0;exitDy=0;targetPerimeterSpacing=0;sourcePerimeterSpacing=0;" parent="1" source="2019046058224" target="2019046058176" edge="1">
          <mxGeometry relative="1" as="geometry" />
        </mxCell>
        <mxCell id="2019046058656" style="edgeStyle=orthogonalEdgeStyle;orthogonalLoop=1;rounded=0;jettySize=auto;entryX=0.5;entryY=0;entryDx=0;entryDy=0;exitX=0.5;exitY=1;exitDx=0;exitDy=0;targetPerimeterSpacing=0;sourcePerimeterSpacing=0;" parent="1" source="2019046058320" target="2019046058752" edge="1">
          <mxGeometry relative="1" as="geometry" />
        </mxCell>
        <mxCell id="2019046057408" value="int kvadr(Args... args)" style="whiteSpace=wrap;rounded=0;dashed=0;inherit=default;shape=process;backgroundOutline=1;" parent="1" vertex="1">
          <mxGeometry x="1319.5" y="50" width="161" height="80" as="geometry" />
        </mxCell>
        <mxCell id="2019046057312" value="return ((isPerfectSquare(args) ? 1 : 0) + ...);" style="whiteSpace=wrap;rounded=0;dashed=0;strokeWidth=2;shape=mxgraph.flowchart.terminator;" parent="1" vertex="1">
          <mxGeometry x="1235.5" y="170" width="329" height="80" as="geometry" />
        </mxCell>
        <mxCell id="2019046056448" style="edgeStyle=orthogonalEdgeStyle;orthogonalLoop=1;rounded=0;jettySize=auto;entryX=0.5;entryY=0;entryDx=0;entryDy=0;exitX=0.5;exitY=1;exitDx=0;exitDy=0;targetPerimeterSpacing=0;sourcePerimeterSpacing=0;" parent="1" source="2019046057408" target="2019046057312" edge="1">
          <mxGeometry relative="1" as="geometry" />
        </mxCell>
        <mxCell id="eQgMcs1U97YG8HQ-sQCH-2019046060818" value="0" style="text;html=1;align=center;verticalAlign=middle;resizable=0;points=[];autosize=1;strokeColor=none;fillColor=none;" vertex="1" parent="1">
          <mxGeometry x="894.5" y="180" width="30" height="30" as="geometry" />
        </mxCell>
      </root>
    </mxGraphModel>
  </diagram>
</mxfile>
